<svg width="35" height="35" viewBox="0 0 35 35" fill="none" xmlns="http://www.w3.org/2000/svg">
<path d="M35 17.5C35 27.1651 27.1651 35 17.5 35C7.83489 35 0 27.1651 0 17.5C0 7.83489 7.83489 0 17.5 0C27.1651 0 35 7.83489 35 17.5Z" fill="#4A7AFF"/>
<path d="M18.2679 34.9822C27.5765 34.5804 34.9999 26.9075 34.9999 17.5001C34.9999 17.432 34.9981 17.3642 34.9973 17.2961L22.8499 5.14844L9.86157 18.7242L17.078 25.9406L13.7506 30.4649L18.2679 34.9822Z" fill="#0053BF"/>
<path d="M22.8499 5.14853V9.11124C22.8499 9.11124 18.3002 8.45088 18.3002 11.3861V14.3212H22.4095L21.8961 18.7974H18.3002V30.465H13.7506V18.7974L9.86133 18.724V14.3212H13.6772V10.9457C13.6772 10.9457 13.4254 5.92425 18.3737 5.00194C20.4285 4.61875 22.8499 5.14853 22.8499 5.14853Z" fill="white"/>
<path d="M22.8499 9.11124V5.14853C22.8499 5.14853 20.4285 4.61875 18.3737 5.00194C18.0528 5.06175 17.7542 5.13919 17.4757 5.23078V30.465H18.3003V18.7974H21.8958L22.4096 14.3212H18.3003C18.3003 14.3212 18.3003 14.3212 18.3003 11.3861C18.3003 8.45088 22.8499 9.11124 22.8499 9.11124Z" fill="#DCE1EB"/>
</svg>
