<svg width="35" height="35" viewBox="0 0 35 35" fill="none" xmlns="http://www.w3.org/2000/svg">
<g clip-path="url(#clip0)">
<path d="M7.75674 21.1512L6.53844 25.6993L2.08558 25.7935C0.754824 23.3252 0 20.5012 0 17.5002C0 14.5983 0.705742 11.8617 1.95672 9.45215H1.95768L5.92197 10.1789L7.65857 14.1195C7.29511 15.1791 7.097 16.3166 7.097 17.5002C7.09714 18.7848 7.32983 20.0157 7.75674 21.1512Z" fill="#FBBB00"/>
<path d="M34.6944 14.231C34.8954 15.2896 35.0002 16.3828 35.0002 17.5002C35.0002 18.7531 34.8684 19.9752 34.6175 21.1541C33.7656 25.1656 31.5396 28.6685 28.456 31.1473L28.455 31.1463L23.4618 30.8916L22.7551 26.48C24.8012 25.28 26.4003 23.4021 27.2426 21.1541H17.8849V14.231H27.3791H34.6944Z" fill="#518EF8"/>
<path d="M28.4548 31.146L28.4557 31.147C25.4568 33.5576 21.6471 34.9999 17.5 34.9999C10.8356 34.9999 5.04136 31.2749 2.08557 25.7932L7.75673 21.1509C9.23459 25.0951 13.0394 27.9028 17.5 27.9028C19.4173 27.9028 21.2135 27.3845 22.7548 26.4797L28.4548 31.146Z" fill="#28B446"/>
<path d="M28.6701 4.02883L23.0009 8.67016C21.4057 7.67307 19.5201 7.09707 17.4999 7.09707C12.9384 7.09707 9.06242 10.0336 7.65859 14.1192L1.95762 9.45191H1.95667C4.86918 3.83653 10.7365 0 17.4999 0C21.7461 0 25.6394 1.51252 28.6701 4.02883Z" fill="#F14336"/>
</g>
<defs>
<clipPath id="clip0">
<rect width="35" height="35" fill="white"/>
</clipPath>
</defs>
</svg>
