<svg width="35" height="35" viewBox="0 0 35 35" fill="none" xmlns="http://www.w3.org/2000/svg">
<path d="M17.4999 0C27.1655 0 35 7.83562 35 17.5001C35 27.1656 27.1655 35 17.4999 35C7.83442 35 0 27.1655 0 17.5001C0 7.83562 7.83454 0 17.4999 0Z" fill="#26A6D1"/>
<path d="M28.4407 11.7893C27.6763 12.1196 26.8537 12.3416 25.9908 12.4423C26.8724 11.9293 27.5483 11.1188 27.8666 10.1509C27.0419 10.6267 26.1297 10.9713 25.1574 11.1561C24.3797 10.3522 23.2717 9.8501 22.0446 9.8501C19.6908 9.8501 17.7812 11.7019 17.7812 13.9877C17.7812 14.3126 17.8184 14.6287 17.8916 14.9317C14.3478 14.7589 11.2044 13.1105 9.10226 10.607C8.73474 11.2184 8.52473 11.9282 8.52473 12.6873C8.52473 14.1223 9.27719 15.391 10.4213 16.1315C9.72136 16.1097 9.06501 15.9248 8.48869 15.6131V15.6656C8.48869 17.6715 9.95864 19.3439 11.9099 19.7245C11.5522 19.8186 11.1759 19.87 10.7865 19.87C10.512 19.87 10.2452 19.8449 9.98483 19.7957C10.5273 21.4407 12.1024 22.6372 13.9694 22.6701C12.5093 23.7813 10.6706 24.442 8.67239 24.442C8.32782 24.442 7.98877 24.4223 7.65405 24.3841C9.54294 25.5587 11.783 26.2445 14.1925 26.2445C22.0369 26.2445 26.3266 19.9358 26.3266 14.467L26.3146 13.931C27.1457 13.349 27.8687 12.6206 28.4407 11.7893Z" fill="white"/>
</svg>
