<svg width="281" height="364" viewBox="0 0 281 364" fill="none" xmlns="http://www.w3.org/2000/svg">
<path fill-rule="evenodd" clip-rule="evenodd" d="M157.946 112.054C194.398 113.348 221.265 142.134 243.809 170.864C266.09 199.259 286.191 231.794 279.796 267.341C273.093 304.598 245.493 334.377 211.442 350.78C177.42 367.168 137.529 369.12 103.81 352.113C70.761 335.444 50.5951 302.049 42.9195 265.781C35.4051 230.275 42.3724 193.526 64.1015 164.486C86.7058 134.277 120.288 110.718 157.946 112.054Z" fill="#DDFFBC"/>
<path fill-rule="evenodd" clip-rule="evenodd" d="M10.222 28.4936C13.6768 20.1664 22.6667 16.438 31.2698 13.7056C39.7722 11.0052 49.0445 9.16777 56.7207 13.7253C64.7661 18.5021 69.2714 27.4695 70.1214 36.7728C70.9706 46.068 67.9694 55.4724 61.1134 61.8065C54.3934 68.0151 44.9164 69.7931 35.8554 68.4308C26.9848 67.0971 19.0799 62.3031 14.2376 54.7587C9.20033 46.9106 6.65288 37.0964 10.222 28.4936Z" fill="#DDFFBC"/>
<path fill-rule="evenodd" clip-rule="evenodd" d="M107.25 24.6335C109.024 20.3569 113.641 18.4421 118.059 17.0389C122.426 15.652 127.188 14.7084 131.13 17.049C135.262 19.5022 137.576 24.1075 138.012 28.8854C138.448 33.6591 136.907 38.4889 133.386 41.7419C129.935 44.9304 125.068 45.8436 120.414 45.1439C115.859 44.459 111.799 41.9969 109.312 38.1224C106.725 34.0918 105.417 29.0516 107.25 24.6335Z" fill="#DDFFBC"/>
</svg>
