<svg width="55" height="55" viewBox="0 0 55 55" fill="none" xmlns="http://www.w3.org/2000/svg">
<path d="M27.9336 54.5428C42.8732 54.5428 54.9842 42.4318 54.9842 27.4922C54.9842 12.5526 42.8732 0.441589 27.9336 0.441589C12.994 0.441589 0.883057 12.5526 0.883057 27.4922C0.883057 42.4318 12.994 54.5428 27.9336 54.5428Z" fill="white"/>
<path d="M27.9335 0.441589C27.2488 0.441589 26.5702 0.467527 25.8983 0.51753C39.8872 1.55822 50.9136 13.2372 50.9136 27.4922C50.9136 41.7472 39.8872 53.4262 25.8983 54.4669C26.5702 54.5169 27.2488 54.5428 27.9335 54.5428C42.8732 54.5428 54.9842 42.4319 54.9842 27.4922C54.9842 12.5525 42.8732 0.441589 27.9335 0.441589Z" fill="white"/>
<path d="M27.9337 48.2633C39.4053 48.2633 48.7048 38.9638 48.7048 27.4922C48.7048 16.0206 39.4053 6.72101 27.9337 6.72101C16.4621 6.72101 7.1626 16.0206 7.1626 27.4922C7.1626 38.9638 16.4621 48.2633 27.9337 48.2633Z" fill="#F2F2F2"/>
<path d="M27.9338 14.3056C27.328 14.3056 26.8369 13.8146 26.8369 13.2089V11.5346C26.8369 10.9288 27.3279 10.4378 27.9338 10.4378C28.5397 10.4378 29.0306 10.9288 29.0306 11.5346V13.2087C29.0306 13.8145 28.5396 14.3056 27.9338 14.3056Z" fill="#365E7D"/>
<path d="M38.0336 18.4891C37.753 18.4891 37.4722 18.382 37.2579 18.1679C36.8296 17.7395 36.8296 17.045 37.2579 16.6166L38.4417 15.4328C38.8701 15.0047 39.5645 15.0047 39.9929 15.4328C40.4212 15.8613 40.4212 16.5557 39.9929 16.9841L38.8091 18.1679C38.595 18.382 38.3143 18.4891 38.0336 18.4891Z" fill="#365E7D"/>
<path d="M43.8913 28.5891H42.2173C41.6115 28.5891 41.1204 28.0981 41.1204 27.4922C41.1204 26.8863 41.6114 26.3954 42.2173 26.3954H43.8913C44.4971 26.3954 44.9882 26.8864 44.9882 27.4922C44.9882 28.098 44.4971 28.5891 43.8913 28.5891Z" fill="#365E7D"/>
<path d="M39.2174 39.8726C38.9368 39.8726 38.656 39.7656 38.4417 39.5514L37.2579 38.3676C36.8296 37.9392 36.8296 37.2448 37.2579 36.8164C37.6863 36.3883 38.3807 36.3883 38.8091 36.8164L39.9929 38.0002C40.4212 38.4286 40.4212 39.123 39.9929 39.5514C39.7788 39.7656 39.4981 39.8726 39.2174 39.8726Z" fill="#365E7D"/>
<path d="M27.9338 44.5465C27.328 44.5465 26.8369 44.0556 26.8369 43.4497V41.7756C26.8369 41.1698 27.3279 40.6789 27.9338 40.6789C28.5397 40.6789 29.0305 41.1698 29.0305 41.7756V43.4497C29.0305 44.0556 28.5396 44.5465 27.9338 44.5465Z" fill="#365E7D"/>
<path d="M16.6501 39.8726C16.3694 39.8726 16.0887 39.7656 15.8746 39.5514C15.4462 39.123 15.4462 38.4286 15.8746 38.0002L17.0584 36.8164C17.4866 36.3883 18.1812 36.3883 18.6095 36.8164C19.0379 37.2448 19.0379 37.9392 18.6095 38.3676L17.4257 39.5514C17.2116 39.7656 16.9308 39.8726 16.6501 39.8726Z" fill="#365E7D"/>
<path d="M13.6504 28.5891H11.9762C11.3704 28.5891 10.8795 28.0981 10.8795 27.4922C10.8795 26.8863 11.3705 26.3954 11.9762 26.3954H13.6504C14.2561 26.3954 14.7471 26.8864 14.7471 27.4922C14.7471 28.098 14.256 28.5891 13.6504 28.5891Z" fill="#365E7D"/>
<path d="M17.8339 18.4891C17.5532 18.4891 17.2725 18.382 17.0584 18.1679L15.8746 16.9841C15.4462 16.5557 15.4462 15.8613 15.8746 15.4328C16.3029 15.0047 16.9974 15.0047 17.4257 15.4328L18.6095 16.6166C19.0379 17.045 19.0379 17.7395 18.6095 18.1679C18.3953 18.382 18.1146 18.4891 17.8339 18.4891Z" fill="#365E7D"/>
<path d="M32.7349 28.589H27.9338C27.328 28.589 26.8369 28.0981 26.8369 27.4921V18.252C26.8369 17.6462 27.3279 17.1553 27.9338 17.1553C28.5397 17.1553 29.0305 17.6462 29.0305 18.252V26.3952H32.7349C33.3407 26.3952 33.8318 26.8862 33.8318 27.492C33.8318 28.0978 33.3407 28.589 32.7349 28.589Z" fill="#2B4D66"/>
</svg>
