<svg width="55" height="55" viewBox="0 0 55 55" fill="none" xmlns="http://www.w3.org/2000/svg">
<path d="M15.5435 21.5217H10.7609C10.1009 21.5217 9.56519 22.0574 9.56519 22.7174V32.2826C9.56519 32.9426 10.1009 33.4783 10.7609 33.4783C11.4209 33.4783 11.9566 32.9426 11.9566 32.2826V23.913H15.5435C16.2035 23.913 16.7392 23.3773 16.7392 22.7173C16.7392 22.0573 16.2035 21.5217 15.5435 21.5217Z" fill="white"/>
<path d="M13.1521 26.3044H10.7609C10.1009 26.3044 9.56519 26.8401 9.56519 27.5001C9.56519 28.1601 10.1009 28.6956 10.7609 28.6956H13.1521C13.8121 28.6956 14.3478 28.16 14.3478 27.5C14.3478 26.84 13.8121 26.3044 13.1521 26.3044Z" fill="white"/>
<path d="M27.4999 0C12.3368 0 0 12.3368 0 27.4999C0 42.6631 12.3368 54.9999 27.4999 54.9999C42.6631 54.9999 54.9999 42.6631 54.9999 27.4999C54.9999 12.3368 42.6632 0 27.4999 0ZM27.4999 52.6086C13.6543 52.6086 2.39127 41.3456 2.39127 27.4999C2.39127 13.6543 13.6543 2.39127 27.4999 2.39127C41.3456 2.39127 52.6086 13.6543 52.6086 27.4999C52.6086 41.3456 41.3456 52.6086 27.4999 52.6086Z" fill="white"/>
<path d="M43.352 14.7949C39.4661 9.95254 33.6887 7.17389 27.5 7.17389C21.3113 7.17389 15.5339 9.95254 11.648 14.7949C11.2343 15.3091 11.3156 16.0624 11.8322 16.476C12.3463 16.8897 13.0996 16.8083 13.5109 16.2918C16.9423 12.0162 22.0406 9.56504 27.5 9.56504C32.9593 9.56504 38.0576 12.0162 41.4868 16.2918C41.7235 16.5859 42.0702 16.7389 42.4194 16.7389C42.6848 16.7389 42.9479 16.6529 43.1678 16.4759C43.6843 16.0624 43.7657 15.3091 43.352 14.7949Z" fill="white"/>
<path d="M42.1922 39.7841C41.7187 39.3322 40.9582 39.3514 40.5039 39.8295C37.0724 43.4428 32.4548 45.4347 27.5 45.4347C22.5452 45.4347 17.9276 43.4427 14.4985 39.8295C14.0466 39.3465 13.2861 39.3322 12.8103 39.7841C12.3273 40.2385 12.3105 40.9965 12.7649 41.4748C16.6508 45.5711 21.8829 47.8261 27.5001 47.8261C33.1173 47.8261 38.3494 45.5711 42.2377 41.4748C42.692 40.9965 42.6728 40.2385 42.1922 39.7841Z" fill="white"/>
<path d="M23.1813 28.6646C24.9412 28.4374 26.3043 26.9285 26.3043 25.1087C26.3043 23.131 24.695 21.5217 22.7173 21.5217H20.3261C19.6661 21.5217 19.1304 22.0574 19.1304 22.7174V27.4904C19.1304 27.4952 19.1304 27.5024 19.1304 27.5071V32.2826C19.1304 32.9426 19.6661 33.4783 20.3261 33.4783C20.9861 33.4783 21.5217 32.9426 21.5217 32.2826V30.3863L24.2622 33.1291C24.4966 33.361 24.8026 33.4783 25.1087 33.4783C25.4148 33.4783 25.7208 33.3611 25.9529 33.1268C26.4192 32.6605 26.4192 31.9024 25.9529 31.4361L23.1813 28.6646ZM21.5217 26.3044V23.9131H22.7174C23.3751 23.9131 23.9131 24.4488 23.9131 25.1088C23.9131 25.7688 23.3751 26.3045 22.7174 26.3045H21.5217V26.3044Z" fill="white"/>
<path d="M34.6739 31.0869H31.0869V23.913H34.6739C35.3339 23.913 35.8696 23.3773 35.8696 22.7173C35.8696 22.0573 35.3339 21.5217 34.6739 21.5217H29.8912C29.2312 21.5217 28.6956 22.0574 28.6956 22.7174V32.2826C28.6956 32.9426 29.2312 33.4783 29.8912 33.4783H34.6739C35.3339 33.4783 35.8696 32.9426 35.8696 32.2826C35.8696 31.6226 35.3339 31.0869 34.6739 31.0869Z" fill="white"/>
<path d="M32.2826 26.3044H29.8914C29.2314 26.3044 28.6957 26.8401 28.6957 27.5001C28.6957 28.1601 29.2314 28.6956 29.8914 28.6956H32.2826C32.9426 28.6956 33.4783 28.16 33.4783 27.5C33.4783 26.84 32.9426 26.3044 32.2826 26.3044Z" fill="white"/>
<path d="M44.2392 31.0869H40.6522V23.913H44.2392C44.8992 23.913 45.4349 23.3773 45.4349 22.7173C45.4349 22.0573 44.8992 21.5217 44.2392 21.5217H39.4566C38.7966 21.5217 38.2609 22.0574 38.2609 22.7174V32.2826C38.2609 32.9426 38.7966 33.4783 39.4566 33.4783H44.2392C44.8992 33.4783 45.4349 32.9426 45.4349 32.2826C45.4349 31.6226 44.8992 31.0869 44.2392 31.0869Z" fill="white"/>
<path d="M41.8478 26.3044H39.4566C38.7966 26.3044 38.2609 26.8401 38.2609 27.5001C38.2609 28.1601 38.7966 28.6956 39.4566 28.6956H41.8478C42.5078 28.6956 43.0435 28.16 43.0435 27.5C43.0435 26.84 42.5078 26.3044 41.8478 26.3044Z" fill="white"/>
</svg>
