<svg width="55" height="55" viewBox="0 0 55 55" fill="none" xmlns="http://www.w3.org/2000/svg">
<path d="M30.5149 19.8601C31.903 18.42 32.6688 16.5249 32.6688 14.5225C32.6688 10.2827 29.2207 6.83453 24.9809 6.83453C20.7414 6.83453 17.293 10.2827 17.293 14.5225C17.293 16.5242 18.0578 18.42 19.4475 19.8601C19.6927 20.1148 19.6865 20.5207 19.4318 20.7663C19.3073 20.8861 19.1474 20.9464 18.9875 20.9464C18.8193 20.9464 18.6525 20.8803 18.5269 20.7499C16.9054 19.0698 16.0122 16.8578 16.0122 14.5225C16.0122 9.57627 20.0354 5.55242 24.9823 5.55242C29.9289 5.55242 33.9525 9.57627 33.9525 14.5225C33.9525 16.8578 33.06 19.0698 31.4385 20.7499C31.1937 21.0054 30.7887 21.0115 30.5324 20.7663C30.2762 20.5199 30.2681 20.1148 30.5149 19.8601ZM15.5063 24.689C15.7587 24.4415 15.7638 24.0358 15.5163 23.7824C13.0807 21.2939 11.7389 18.0053 11.7389 14.5227C11.7389 7.22163 17.679 1.28134 24.9802 1.28134C32.2812 1.28134 38.2213 7.22163 38.2213 14.5227C38.2213 18.006 36.8801 21.2945 34.4439 23.7831C34.1964 24.0359 34.2005 24.4415 34.454 24.6891C34.5788 24.8111 34.741 24.8721 34.9019 24.8721C35.0675 24.8721 35.2338 24.8078 35.3599 24.6801C38.0321 21.9504 39.5027 18.3427 39.5027 14.5228C39.5028 6.51439 32.988 0 24.9802 0C16.9722 0 10.4577 6.51439 10.4577 14.5225C10.4577 18.3425 11.9293 21.9496 14.6003 24.6793C14.8477 24.9317 15.2541 24.9361 15.5063 24.689ZM42.2509 52.1796L41.5152 54.5468C41.432 54.8163 41.1813 55 40.8989 55C40.8982 55 40.8982 55 40.8982 55L27.1968 54.98C26.9269 54.98 26.6871 54.8123 26.5926 54.5607C26.4977 54.3093 26.5692 54.0257 26.7724 53.8485C26.7704 53.8485 26.8817 53.7259 26.8727 53.5059C26.8633 53.2899 26.7279 52.8245 25.9284 52.14C25.6787 51.9033 20.3059 46.8048 18.0165 42.8169C17.3842 41.9271 12.7039 35.1943 13.8251 32.2336C14.0903 31.5322 14.6421 31.0614 15.4251 30.8703C15.7782 30.7449 16.1386 30.6813 16.497 30.6813C18.553 30.6813 20.0779 32.6997 21.1911 34.173C21.4362 34.4988 21.7454 34.9072 21.9767 35.1615C22.077 34.7128 22.1847 33.7069 22.1739 31.4517C22.1739 31.4289 22.1745 31.4048 22.1772 31.3806C22.1812 31.347 22.5191 27.9713 22.5389 17.193C22.4085 17.1662 22.2815 17.1092 22.1862 17.002C21.579 16.318 21.2447 15.4378 21.2447 14.5218C21.2447 12.4611 22.9209 10.7843 24.9816 10.7843C27.0423 10.7843 28.7184 12.4611 28.7184 14.5218C28.7184 15.3355 28.4429 16.1107 27.9584 16.7555C27.9721 16.8859 27.9859 17.0215 28.0011 17.1676C28.1268 18.4126 28.2618 20.042 28.404 21.7669C28.5903 24.0337 28.8332 26.97 29.0223 28.3241C29.5815 28.0384 30.3775 27.7347 31.2399 27.7347C32.1888 27.7347 33.4669 28.1035 34.4151 29.7578C34.8564 29.5895 35.4908 29.4077 36.1882 29.4077C37.3135 29.4077 38.8035 29.8684 39.6753 31.9934C40.4665 32.1343 42.2134 32.5869 43.3514 33.9489C44.1494 34.9031 44.4927 36.1015 44.3747 37.5137C44.4737 38.3998 45.2692 46.3603 42.2509 52.1796ZM22.5246 14.5225C22.5246 14.7827 22.5729 15.0362 22.6524 15.2793C23.046 12.9598 24.0407 12.4364 24.8512 12.4364C25.9449 12.4364 26.9578 13.4553 27.4229 14.3908C27.3521 13.0989 26.2896 12.0668 24.9802 12.0668C23.6253 12.0661 22.5246 13.1683 22.5246 14.5225ZM43.0824 37.6018C43.077 37.5555 43.077 37.5093 43.0811 37.4629C43.1824 36.3793 42.9415 35.4781 42.3635 34.7833C41.2363 33.4253 39.1681 33.2242 39.1466 33.2221C38.8931 33.1987 38.6746 33.0297 38.5921 32.7897C38.1074 31.3821 37.32 30.6988 36.1854 30.6988C35.2628 30.6988 34.446 31.1567 34.4379 31.1614C34.281 31.2513 34.0899 31.2714 33.9176 31.2144C33.7445 31.158 33.6024 31.032 33.5286 30.8656C32.9733 29.6278 32.2236 29.0256 31.2372 29.0256C30.0938 29.0256 29.0115 29.8329 29.0007 29.8416C28.8365 29.9677 28.6212 30.0073 28.4241 29.9482C27.8279 29.7713 27.7649 29.7526 27.1151 21.8728C26.9675 20.0947 26.7971 18.0267 26.653 16.7156C26.6446 16.673 26.6379 16.6331 26.6386 16.5905C26.5802 16.0748 26.5266 15.6869 26.4813 15.5092C26.4394 15.4445 26.4099 15.3717 26.3927 15.2943C26.2593 14.675 25.4073 13.7264 24.849 13.7264C24.4836 13.7264 23.9987 14.3776 23.827 16.2109C23.8263 27.3741 23.5024 31.0614 23.4613 31.4798C23.4757 34.9976 23.2269 35.9412 22.791 36.379C22.6063 36.5648 22.3763 36.6626 22.1249 36.6626C21.4499 36.6626 20.9356 35.982 20.157 34.952C19.2071 33.694 17.9072 31.9733 16.4936 31.9733C16.275 31.9733 16.0507 32.0149 15.8286 32.0966C15.8039 32.1054 15.7781 32.1127 15.7519 32.1194C15.2594 32.2334 15.1077 32.4842 15.0287 32.6908C14.3578 34.4638 17.1588 39.3993 19.0824 42.093C19.0955 42.1098 19.1061 42.1285 19.1173 42.148C21.3031 45.9724 26.7361 51.1291 26.7901 51.1801C27.689 51.9499 28.1573 52.7454 28.1614 53.5231C28.1614 53.5808 28.1588 53.6357 28.1547 53.6895L40.4214 53.7075L41.0337 51.7401C41.0451 51.7032 41.059 51.667 41.0773 51.6322C44.056 45.9519 43.0937 37.6848 43.0824 37.6018Z" fill="white"/>
</svg>
