<svg width="55" height="55" viewBox="0 0 55 55" fill="none" xmlns="http://www.w3.org/2000/svg">
<path d="M32.0834 2.75H22.9168C22.4108 2.75 22.0001 3.16067 22.0001 3.66663C22.0001 4.17259 22.4108 4.58326 22.9168 4.58326H32.0834C32.5893 4.58326 33 4.17259 33 3.66663C33 3.16067 32.5893 2.75 32.0834 2.75Z" fill="white"/>
<path d="M38.5 2.75H37.5834C37.0774 2.75 36.6667 3.16067 36.6667 3.66663C36.6667 4.17259 37.0774 4.58326 37.5834 4.58326H38.5C39.006 4.58326 39.4166 4.17259 39.4166 3.66663C39.4166 3.16067 39.006 2.75 38.5 2.75Z" fill="white"/>
<path d="M28.6385 46.75H26.3624C24.9682 46.75 23.8334 47.8848 23.8334 49.279V49.7218C23.8334 51.1161 24.9682 52.25 26.3615 52.25H28.6376C30.0318 52.25 31.1666 51.1161 31.1666 49.7218V49.279C31.1666 47.8848 30.0318 46.75 28.6385 46.75ZM29.3334 49.7218C29.3334 50.105 29.0217 50.4166 28.6386 50.4166H26.3624C25.9784 50.4166 25.6666 50.105 25.6666 49.7218V49.279C25.6666 48.895 25.9783 48.5833 26.3624 48.5833H28.6376C29.0217 48.5833 29.3334 48.8949 29.3334 49.279V49.7218Z" fill="white"/>
<path d="M39.7705 0H15.2304C13.4035 0 11.9166 1.48683 11.9166 3.31375V51.6863C11.9166 53.5132 13.4035 55 15.2304 55H39.7695C41.5964 55 43.0833 53.5132 43.0833 51.6872V3.31375C43.0834 1.48683 41.5965 0 39.7705 0ZM41.25 51.6863C41.25 52.5021 40.5864 53.1666 39.7705 53.1666H15.2304C14.4136 53.1666 13.75 52.502 13.75 51.6871V3.31375C13.75 2.49788 14.4136 1.83337 15.2304 1.83337H39.7695C40.5862 1.83337 41.2499 2.49799 41.2499 3.31375V51.6863H41.25Z" fill="white"/>
<path d="M42.1666 5.5H12.8334C12.3274 5.5 11.9167 5.91067 11.9167 6.41663V44.9166C11.9167 45.4226 12.3274 45.8333 12.8334 45.8333H42.1667C42.6727 45.8333 43.0834 45.4226 43.0834 44.9166V6.41663C43.0834 5.91067 42.6727 5.5 42.1666 5.5ZM41.25 44H13.75V7.33337H41.25V44Z" fill="white"/>
</svg>
